<?xml version="1.0" standalone="no"?><!DOCTYPE svg PUBLIC "-//W3C//DTD SVG 1.1//EN" "http://www.w3.org/Graphics/SVG/1.1/DTD/svg11.dtd"><svg t="1611473418229" class="icon" viewBox="0 0 1024 1024" version="1.1" xmlns="http://www.w3.org/2000/svg" p-id="6240" xmlns:xlink="http://www.w3.org/1999/xlink" width="200" height="200"><defs><style type="text/css"></style></defs><path d="M450.154667 219.605333c0.213333-7.573333-0.64-22.250667 0.064-36.906666 0.106667-2.218667-0.362667-4.224-1.877334-5.930667-1.536-1.728-1.770667-3.968-1.685333-6.037333 0.234667-5.653333-2.389333-10.368-4.586667-15.232-0.554667-1.237333-1.109333-2.453333-1.472-3.776-0.618667-2.304-1.856-4.309333-2.965333-6.421334-1.664-3.221333-3.562667-6.272-5.312-9.429333-1.664-3.029333-2.474667-6.549333-5.056-9.066667-0.682667-0.682667-0.938667-1.6-1.237333-2.496-0.256-0.810667-0.405333-1.792-0.96-2.346666-4.629333-4.778667-3.605333-11.264-5.184-16.96-0.362667-1.301333-0.256-2.709333-0.490667-4.053334-0.341333-1.962667 0.554667-3.285333 1.685333-4.821333 2.517333-3.434667 5.973333-2.752 9.365334-2.752 0.405333 0 0.96 0.064 1.194666 0.32 4.032 4.693333 9.685333 5.696 15.317334 6.528 2.666667 0.405333 4.928 1.216 7.274666 2.688 2.645333 1.685333 5.781333 2.581333 8.533334 4.330667 5.674667 3.626667 10.368 8.192 14.506666 13.376 1.301333 1.642667 2.858667 3.050667 4.010667 4.928 2.88 4.650667 4.672 9.813333 7.338667 14.549333 0.661333 1.152 1.493333 2.112 2.730666 2.581333 3.093333 1.194667 4.032 3.712 4.16 6.72 0.256 5.973333-0.298667 12.096 0.917334 17.856 1.088 5.141333 1.856 10.496 4.053333 15.381334 0.981333 2.197333 1.301333 4.416 1.173333 6.72-0.426667 8.106667 0 16.213333-0.064 24.298666-0.149333 13.717333-0.128 27.456-0.234666 41.173334-0.021333 2.218667 0.021333 4.437333 0.149333 6.656 0.213333 3.946667 0.554667 7.744 4.096 10.56 1.493333 1.194667 2.282667 3.306667 2.858667 5.333333 1.856 6.634667 9.429333 8.917333 14.784 4.544 1.152-0.938667 2.474667-1.408 3.861333-1.898667 4.288-1.536 8.917333-2.304 12.608-5.354666 1.408-1.173333 3.413333-0.981333 5.184-1.130667 2.346667-0.213333 4.544-0.597333 6.314667-2.346667 0.853333-0.853333 2.048-1.386667 3.242666-1.429333 4.266667-0.149333 7.872-2.24 11.349334-4.245333 2.496-1.450667 5.013333-1.984 7.744-2.176 1.856-0.149333 3.52-0.682667 4.8-2.090667 1.088-1.194667 2.496-1.941333 4.032-2.005333 4.736-0.170667 8.533333-2.773333 12.608-4.650667 0.533333-0.256 1.066667-0.853333 1.578666-0.810667 6.72 0.426667 11.584-5.376 18.154667-5.354666 0.938667 0 1.813333-0.448 2.56-1.045334 3.946667-3.072 8.298667-3.861333 13.205333-2.901333 3.114667 0.597333 6.250667 0.768 8.512 3.434667 0.362667 0.448 1.237333 0.533333 1.898667 0.661333 2.453333 0.469333 4.736 1.045333 6.506667 3.114667 1.429333 1.642667 3.84 1.706667 5.76 2.56 3.669333 1.6 6.677333 4.288 10.581333 5.504 3.114667 0.981333 5.546667 3.52 8.554667 4.970666 8.618667 4.138667 15.658667 10.496 22.314666 17.130667 2.88 2.88 5.717333 6.506667 5.248 11.434667-0.341333 3.626667-0.128 7.317333-0.128 10.986666 0 1.130667 0.021333 2.346667-0.704 3.2-2.112 2.538667-3.136 5.717333-5.461333 8.213334-2.56 2.752-5.866667 4.266667-8.725333 6.464-2.538667 1.962667-5.696 3.072-7.850667 5.632-0.448 0.533333-1.322667 1.024-1.984 1.024-4.266667-0.042667-7.424 2.666667-10.986667 4.352-3.605333 1.706667-7.573333 2.730667-10.666666 5.44-0.128 0.106667-0.298667 0.234667-0.448 0.234666-7.082667 0.064-12.672 5.76-19.882667 5.312-1.770667-0.106667-2.922667 1.258667-4.330667 2.026667-3.946667 2.154667-8.298667 3.029333-12.672 3.776-1.28 0.213333-2.581333 0.490667-3.52 1.429333-2.112 2.133333-4.757333 2.474667-7.530666 2.581334-2.133333 0.085333-4.245333 0.32-6.378667 0.362666-1.557333 0.042667-2.709333 0.682667-3.861333 1.664-4.074667 3.498667-7.445333 3.797333-10.901334-0.576-1.130667-1.429333-3.370667-1.941333-3.434666-4.224-0.085333-2.282667 2.090667-2.944 3.157333-4.394666 1.536-2.048 1.92-4.672 3.562667-6.72 2.901333-3.626667 4.565333-8.042667 6.869333-12.053334 2.944-5.12 5.781333-10.368 7.893333-15.936 0.277333-0.704 0.512-1.536 1.024-2.048 2.794667-2.794667 2.538667-6.4 2.581334-9.856 0.042667-3.413333-3.008-5.994667-6.933334-6.058666-1.450667-0.021333-2.901333 0.213333-4.352 0.213333-2.389333 0-3.605333-1.173333-3.797333-3.541333-0.213333-2.794667-3.370667-6.165333-6.250667-6.442667a58.218667 58.218667 0 0 0-11.242666-0.021333c-1.792 0.170667-3.050667 1.493333-4.501334 2.325333-3.946667 2.282667-8.512 2.304-12.714666 3.562667-0.490667 0.149333-1.066667 0.106667-1.472 0.362666-6.4 4.010667-14.144 5.632-19.946667 10.56-3.946667 3.370667-8.725333 6.101333-11.029333 11.178667-0.298667 0.661333-0.896 1.28-1.514667 1.706667-4.373333 3.072-7.210667 7.338667-9.536 12.053333-0.618667 1.28-1.792 2.282667-2.453333 3.541333-1.429333 2.773333-3.626667 5.184-3.904 8.512-0.085333 1.002667-0.832 1.877333-1.6 2.581334-1.173333 1.088-1.92 2.432-2.176 3.968-0.768 4.48-3.136 8.213333-5.376 12.032-0.917333 1.536-1.130667 3.157333-1.045334 4.906666 0.213333 4.373333 0.170667 8.597333-2.730666 12.437334-1.664 2.197333-1.344 5.226667-1.365334 7.957333-0.021333 3.434667-0.128 6.698667-2.432 9.685333-1.386667 1.813333-1.237333 4.416-1.024 6.72 0.448 5.12 0.512 10.218667 0.32 15.338667-0.128 3.498667 0.96 6.208 4.544 7.402667 0.768 0.256 1.301333 0.789333 1.728 1.450666 2.666667 4.053333 6.442667 5.845333 11.285334 5.504 3.52-0.256 6.976 0.362667 10.432 0.832 0.661333 0.085333 1.408 0.256 1.92 0.64 3.52 2.816 7.722667 2.986667 11.904 3.157334 2.773333 0.106667 5.226667 0.533333 7.573333 2.368 2.901333 2.282667 6.485333 3.306667 10.24 3.584 0.938667 0.064 2.026667 0 2.666667 0.725333 2.304 2.645333 5.738667 2.688 8.576 4.053333 3.648 1.728 6.549333 4.778667 9.664 7.424 3.712 3.136 3.989333 8.085333 6.656 11.776 0.917333 1.258667 0.512 3.136 0.426666 4.778667-0.405333 9.194667-0.576 18.410667-0.021333 27.605333 0.234667 4.010667-0.768 7.978667-0.064 11.989334 0.170667 0.917333-0.277333 1.877333-0.832 2.645333-1.792 2.581333-2.154667 5.482667-2.154667 8.533333 0 5.034667-0.277333 10.069333 0.085334 15.104 0.384 5.44-1.322667 10.645333-1.856 15.978667-0.149333 1.514667-0.341333 3.072-0.277334 4.586667 0.277333 6.016-0.96 11.648-3.968 16.896-1.066667 1.877333-0.725333 4.010667-0.682666 6.016 0.064 4.266667 0.213333 8.533333-0.853334 12.736-0.170667 0.661333-0.170667 1.493333-0.597333 1.941333-3.413333 3.562667-2.581333 8.106667-3.008 12.352-0.106667 1.024-0.064 2.048-0.682667 2.944-2.88 4.138667-4.266667 8.896-5.546666 13.674667-0.490667 1.856-1.130667 3.562667-2.624 4.864-0.853333 0.746667-1.408 1.792-1.408 2.922666 0.021333 3.989333-2.346667 6.869333-4.501334 9.813334-4.501333 6.101333-7.274667 12.650667-5.866666 20.437333 0.746667 4.117333 3.52 6.912 6.357333 9.642667 2.837333 2.709333 5.802667 5.290667 8.106667 8.469333 1.664 2.325333 4.266667 3.370667 6.378666 5.034667 2.794667 2.218667 5.312 4.906667 8.32 6.72 5.226667 3.157333 9.130667 7.872 14.186667 11.093333 2.261333 1.450667 5.077333 1.941333 7.168 3.989333 4.970667 4.842667 11.264 7.786667 17.045333 11.456 2.261333 1.429333 4.394667 3.370667 6.72 4.522667 3.733333 1.856 6.784 4.928 10.858667 6.101333 1.536 0.448 2.709333 1.493333 3.904 2.368 3.221333 2.368 6.890667 3.968 10.090667 6.314667 0.746667 0.554667 1.578667 1.088 2.474666 1.301333 2.624 0.661333 4.928 1.962667 7.061334 3.498667 2.368 1.706667 5.184 2.538667 7.637333 3.925333 3.605333 2.026667 7.68 3.050667 11.029333 5.653334 2.069333 1.621333 5.077333 1.984 7.338667 3.434666 4.522667 2.858667 9.941333 3.904 14.144 7.36 0.661333 0.554667 1.493333 0.874667 2.368 0.896 2.154667 0.064 4.032 1.024 5.632 2.24 3.2 2.410667 6.506667 4.330667 10.645333 4.458667 1.152 0.042667 1.984 0.938667 2.773334 1.728 0.661333 0.661333 1.28 1.642667 2.218666 1.642667 4.864-0.042667 8.341333 3.52 12.714667 4.736 2.154667 0.597333 4.117333 1.642667 6.058667 2.709333 3.221333 1.770667 6.357333 3.584 10.176 3.626667 0.448 0 1.045333 0.298667 1.344 0.661333 1.749333 2.133333 4.16 2.816 6.741333 3.285333 3.925333 0.704 7.402667 2.410667 10.325333 5.141334 0.874667 0.810667 1.962667 0.938667 3.093334 1.002666 2.773333 0.128 5.397333 0.725333 7.616 2.581334 0.576 0.469333 1.344 0.96 2.026666 1.002666 4.842667 0.234667 8.490667 3.157333 12.437334 5.418667 1.024 0.576 2.069333 0.725333 3.178666 0.768 3.562667 0.149333 6.933333 0.810667 9.642667 3.434667 0.576 0.554667 1.514667 1.002667 2.282667 1.024 3.754667 0.149333 7.232 0.96 10.282666 3.306666 0.64 0.490667 1.578667 0.725333 2.410667 0.810667 4.970667 0.533333 9.002667 3.477333 13.504 5.098667 4.842667 1.728 9.706667 3.818667 14.570667 5.013333 4.16 1.024 8.298667 1.237333 11.882666 4.032 2.005333 1.578667 4.544 2.304 7.168 2.496 2.602667 0.192 4.885333 0.96 6.954667 2.773333 1.856 1.642667 4.522667 1.365333 6.869333 1.578667 1.941333 0.170667 3.562667 0.789333 5.184 1.877333 2.176 1.472 4.522667 2.602667 7.274667 2.901334 2.048 0.213333 3.818667 1.408 5.376 2.730666 1.322667 1.130667 2.069333 2.965333 4.096 3.242667 0.128 0.021333 0.277333 0.192 0.362667 0.32 0.896 1.258667 0.021333 8.853333-1.088 9.92-0.490667 0.469333-1.066667 0.981333-1.258667 1.578667-1.536 4.928-5.888 7.573333-9.109333 11.114666-1.237333 1.365333-3.2 1.792-4.885334 2.005334-2.816 0.362667-5.056 1.962667-7.637333 2.794666-0.469333 0.149333-1.088 0.426667-1.258667 0.810667-1.301333 2.858667-3.818667 2.24-6.101333 2.24-26.112 0.021333-52.224 0.021333-78.336 0.064-1.621333 0-2.602667-0.469333-3.797333-1.792-2.581333-2.901333-6.250667-4.010667-10.069334-4.458667-3.712-0.426667-7.594667-0.170667-10.837333-2.453333-1.301333-0.917333-2.602667-1.578667-4.202667-1.664-2.794667-0.149333-5.141333-1.152-7.466666-2.837333-2.730667-1.984-6.357333-2.176-9.472-3.669334-3.626667-1.749333-6.848-4.565333-11.178667-4.821333-0.704-0.042667-1.344-0.981333-2.005333-1.493333-0.597333-0.469333-1.152-1.301333-1.792-1.365334-4.608-0.554667-7.232-4.672-11.136-6.101333-3.605333-1.322667-6.101333-4.629333-10.133334-4.992-2.133333-0.192-3.285333-2.517333-5.184-3.114667-3.84-1.237333-6.698667-3.776-9.856-6.08-2.56-1.877333-4.949333-4.309333-8.256-5.354666-2.026667-0.64-3.648-2.410667-5.44-3.690667-5.952-4.224-12.266667-7.872-17.834666-12.693333-3.712-3.2-7.978667-5.994667-12.48-8.277334-1.898667-0.96-3.093333-2.88-4.842667-4.138666-4.949333-3.562667-10.026667-6.912-14.506667-11.157334-5.034667-4.736-10.858667-8.576-16.341333-12.8-4.245333-3.242667-8.085333-7.018667-12.309333-10.282666-3.52-2.709333-6.549333-5.909333-9.856-8.832-3.946667-3.477333-7.744-7.125333-11.861334-10.410667-1.002667-0.810667-1.984-1.514667-3.242666-1.941333-2.666667-0.917333-4.117333-3.434667-6.165334-5.184-8.981333-7.616-16.64-16.597333-25.408-24.426667-3.584-3.221333-6.634667-7.104-11.050666-9.386667-7.829333-4.053333-11.626667-1.898667-17.514667 1.856-3.328 2.112-6.677333 4.181333-10.133333 6.122667-3.221333 1.813333-6.357333 3.968-7.978667 7.552-0.746667 1.685333-1.856 2.56-3.690667 2.602667-6.826667 0.149333-12.394667 3.392-17.301333 7.658666-2.730667 2.368-6.058667 3.498667-9.088 5.098667-5.184 2.730667-9.728 6.677333-15.402667 8.490667-0.682667 0.213333-1.258667 0.853333-1.856 1.301333-0.618667 0.448-1.173333 1.258667-1.834666 1.344-6.186667 0.725333-10.090667 5.76-15.573334 8.042667-7.594667 3.157333-14.912 7.253333-22.037333 11.562666-3.669333 2.218667-7.68 4.373333-11.669333 5.610667-3.968 1.216-7.466667 3.114667-11.093334 4.821333-1.386667 0.661333-2.688 1.408-4.224 1.642667-2.645333 0.384-5.205333 0.917333-7.04 3.178667-0.618667 0.746667-1.621333 0.917333-2.581333 0.96-4.074667 0.192-8.170667 0.341333-12.245333 0.533333-3.776 0.170667-5.397333-3.2-7.957334-5.013333-0.917333-0.64-0.149333-2.026667 0.725334-2.624 5.781333-3.882667 9.962667-9.493333 15.232-13.952 4.138667-3.498667 7.872-7.488 11.690666-11.392 1.941333-1.984 4.629333-2.901333 6.464-4.970667 6.336-7.061333 14.4-12.16 21.162667-18.730667 6.656-6.442667 13.248-12.970667 20.010667-19.285333 4.16-3.882667 8.512-7.552 13.013333-11.050667 2.112-1.642667 3.754667-3.690667 5.696-5.461333 2.282667-2.090667 4.821333-3.776 7.125333-5.802667 2.794667-2.453333 4.885333-5.589333 8.042667-7.786666 2.432-1.685333 4.458667-3.946667 6.613333-5.994667 0.874667-0.810667 1.728-1.664 2.453334-2.602667 2.56-3.456 1.877333-7.168-1.194667-10.112-5.76-5.546667-12.010667-10.538667-18.069333-15.722666-6.250667-5.376-12.373333-10.986667-19.605334-15.36-6.293333-3.818667-12.458667-8.042667-18.496-12.394667-4.608-3.328-9.941333-5.76-15.104-8.362667-4.117333-2.069333-8.618667-3.541333-12.352-6.4-0.448-0.341333-1.066667-0.618667-1.642666-0.682666-8.298667-1.066667-15.381333-6.357333-23.808-6.997334-0.576-0.042667-1.237333-0.277333-1.642667-0.661333-3.477333-3.349333-7.765333-2.922667-12.053333-2.858667-6.058667 0.085333-12.117333 0.085333-18.133334-0.725333-7.04-0.96-7.893333-0.576-9.834666 6.229333-0.725333 2.538667-1.770667 4.842667-3.306667 6.826667-2.005333 2.602667-2.730667 5.397333-2.666667 8.554667 0.064 3.221333-0.426667 6.250667-2.432 8.96-1.066667 1.429333-0.938667 3.242667-0.938666 4.949333 0.021333 2.624-0.554667 4.970667-2.026667 7.232-2.794667 4.288-3.968 9.216-4.736 14.208-0.277333 1.770667-0.874667 3.285333-2.176 4.501333-0.704 0.64-1.365333 1.365333-1.557333 2.304-0.981333 4.736-2.581333 9.258667-3.904 13.888-1.088 3.818667-2.325333 7.402667-4.608 10.56-1.514667 2.112-2.432 4.266667-2.496 6.805334-0.042667 1.536-0.576 2.794667-1.749334 3.818666-0.917333 0.810667-1.429333 1.898667-1.92 2.986667-2.538667 5.568-4.949333 11.2-6.698666 17.066667-0.704 2.346667-3.072 3.584-3.925334 5.930666-1.28 3.413333-3.2 6.506667-5.269333 9.557334-2.090667 3.093333-3.136 6.890667-4.970667 10.261333-2.026667 3.733333-3.776 7.594667-6.805333 10.688-1.258667 1.28-2.282667 2.752-2.901333 4.48-0.234667 0.64-0.533333 1.258667-0.938667 1.813333-4.970667 6.848-10.389333 13.376-15.296 20.224-5.098667 7.104-11.285333 13.162667-16.661333 19.989334-2.346667 2.965333-5.781333 4.672-8.554667 7.189333-2.133333 1.941333-4.437333 1.472-6.997333-1.152-2.410667-2.496-5.376-4.16-8.042667-6.250667-1.450667-1.130667-1.834667-2.24-1.194667-3.968 1.898667-5.034667 4.992-9.514667 6.912-14.506666 1.6-4.16 4.906667-7.552 5.418667-12.181334 0.149333-1.301333 0.789333-2.389333 1.685333-3.370666 0.554667-0.618667 1.173333-1.386667 1.28-2.154667 0.576-3.690667 3.072-6.421333 4.693334-9.578667 0.853333-1.685333 1.792-3.285333 2.090666-5.162666 0.341333-2.090667 1.088-3.904 2.752-5.312 0.490667-0.426667 0.938667-1.088 1.066667-1.706667 1.493333-6.72 5.397333-12.437333 7.701333-18.837333 1.258667-3.477333 2.176-7.189333 3.712-10.432 3.093333-6.421333 3.733333-13.845333 8.256-19.648 1.152-1.493333 0.789333-3.456 1.109334-5.205334 0.469333-2.538667 0.896-5.013333 2.88-6.954666 0.618667-0.618667 1.152-1.621333 1.194666-2.496 0.384-6.464 4.394667-11.754667 5.696-17.92 0.341333-1.578667 0.810667-3.136 1.109334-4.714667 0.192-1.024 0.277333-2.154667 1.045333-2.837333 2.581333-2.304 2.816-5.354667 2.794667-8.448-0.021333-2.922667 0.789333-5.397333 2.410666-7.893334 2.496-3.861333 3.072-8.469333 3.989334-12.885333 0.554667-2.688 1.194667-5.269333 2.496-7.744 1.493333-2.88 1.024-6.165333 1.301333-9.28 0.277333-3.136-0.042667-6.314667 2.901333-8.576 0.618667-0.490667 0.853333-1.664 1.002667-2.56 0.746667-4.714667 1.664-9.408 1.728-14.208 0-0.746667 0.064-1.578667 0.384-2.24 4.288-8.874667 4.906667-18.368 4.672-27.989333-0.042667-1.92 0.341333-3.477333 1.792-4.821334 1.792-1.664 1.685333-3.989333 1.92-6.186666 0.832-8 0.512-16.021333 0.597333-24.042667 0.021333-1.109333-0.234667-2.282667 0.362667-3.264 2.112-3.498667 2.069333-7.445333 2.837333-11.285333 1.386667-6.997333 1.685333-14.037333 1.941334-21.098667 0.213333-5.952 0.106667-11.925333 0.128-17.877333 0-1.109333-0.192-2.282667 0.106666-3.306667 1.728-5.909333-0.618667-10.688-4.032-15.168-0.981333-1.28-1.642667-2.517333-1.664-4.16-0.021333-1.664-0.576-3.242667-1.834666-4.373333-1.621333-1.450667-2.112-3.264-2.090667-5.290667 0.021333-2.154667-0.789333-3.882667-2.048-5.632-1.984-2.773333-3.498667-5.824-4.16-9.237333-0.085333-0.426667-0.042667-0.938667-0.277333-1.237334-3.264-4.138667-3.946667-9.408-6.186667-13.994666-0.682667-1.386667-1.344-2.773333-1.664-4.266667a19.933867 19.933867 0 0 0-5.205333-9.770667c-1.386667-1.429333-1.450667-3.242667-1.493334-5.013333-0.042667-1.749333-0.576-3.029333-1.984-4.181333-2.730667-2.261333-2.261333-5.333333 0.725334-7.338667 1.941333-1.301333 3.861333-1.344 6.122666-1.514667 8.213333-0.576 16.32 1.301333 24.512 0.810667 3.904-0.234667 7.850667 0.341333 10.965334 3.306667 0.597333 0.554667 1.429333 0.917333 2.218666 1.194666 1.6 0.554667 2.602667 1.642667 2.944 3.264 0.298667 1.429333 1.194667 2.389333 2.069334 3.456 1.514667 1.856 3.050667 2.325333 5.333333 1.130667 3.178667-1.685333 6.890667-1.813333 10.304-2.858667 2.048-0.64 4.010667-1.344 5.610667-2.901333 1.408-1.386667 3.285333-1.770667 5.226666-1.685333 2.901333 0.128 5.461333-0.554667 7.893334-2.304 2.794667-1.984 6.549333-2.005333 9.408-3.882667 4.928-3.285333 10.965333-3.946667 16.021333-6.933333 0.938667-0.554667 2.090667-0.981333 3.136-1.002667 4.138667-0.106667 7.082667-2.581333 10.176-4.821333 0.64-0.469333 1.216-0.981333 2.026667-0.96 1.557333 0.021333 2.752-0.789333 3.925333-1.664 2.24-1.706667 4.501333-3.413333 7.509333-3.52 0.789333-0.021333 1.408-0.576 1.962667-1.130667 2.538667-2.474667 5.76-3.861333 8.874667-5.376 2.112-1.024 4.010667-2.389333 5.717333-3.84 4.949333-4.202667 10.986667-6.741333 15.957333-10.858667 1.301333-1.088 2.56-2.261333 3.712-3.52 3.541333-3.925333 7.936-7.04 10.986667-11.413333 2.816-4.032 5.44-8.213333 8-12.394667 0.597333-0.96 0.810667-2.261333 0.874667-3.434666 0.128-1.984 0.746667-3.648 2.133333-5.056 1.472-1.493333 1.344-3.434667 1.344-5.312 0.042667-14.613333 0.042667-29.205333 0.042667-50.901334z m-25.898667 313.792c-1.365333 0-2.325333-0.106667-3.242667 0.021334-3.264 0.490667-5.674667-0.810667-7.829333-3.2-2.730667-3.029333-5.717333-5.845333-8.661333-8.661334-2.346667-2.24-4.224-4.586667-3.861334-8.149333 0.170667-1.621333-0.917333-2.816-1.984-3.989333-2.538667-2.752-2.368-4.821333 0.256-7.466667 1.578667-1.578667 3.029333-3.2 5.482667-3.434667 1.152-0.106667 1.792-1.216 2.624-1.941333 2.709333-2.368 4.565333-5.482667 7.018667-8.064 4.288-4.522667 7.893333-9.6 11.050666-14.912 3.093333-5.184 6.741333-10.026667 9.450667-15.402667 2.005333-3.968 4.288-7.872 5.418667-12.245333 0.448-1.749333 1.152-3.370667 1.877333-5.013333 2.325333-5.162667 5.269333-10.090667 4.736-16.149334-0.192-2.24-0.064-4.757333 1.408-6.634666 2.069333-2.645333 2.261333-5.632 2.176-8.725334-0.362667-14.464 0.064-28.949333 0.234667-43.413333 0.021333-1.536 0.192-3.221333-1.024-4.352-2.688-2.496-5.013333-5.333333-7.786667-7.765333-2.026667-1.770667-3.925333-3.818667-5.418667-6.058667-2.986667-4.458667-6.698667-5.738667-11.306666-2.88-5.290667 3.285333-11.477333 4.544-16.810667 7.850667-2.56 1.6-5.781333 2.304-8.512 4.16-3.669333 2.474667-8.256 3.434667-11.498667 6.762666-0.362667 0.384-1.088 0.426667-1.664 0.576-3.52 0.874667-6.4 3.072-9.429333 4.885334-3.285333 1.941333-5.461333 5.632-9.728 6.122666-0.576 0.064-1.109333 0.746667-1.642667 1.173334-4.352 3.669333-8.618667 7.424-12.693333 11.434666-5.034667 4.970667-10.026667 9.877333-13.674667 16.064-1.429333 2.410667-2.645333 5.162667-5.034666 6.997334-0.96 0.725333-1.002667 1.92-1.045334 3.050666-0.042667 1.621333 0 3.413333-1.152 4.629334-4.330667 4.565333-5.098667 10.24-5.226666 16.128-0.085333 3.754667-0.085333 7.509333-0.085334 11.264 0 15.445333 0.021333 30.890667 0.021334 46.336 0 2.688 0.362667 5.248 1.6 7.68 0.789333 1.6 1.130667 3.328 0.192 4.928-1.493333 2.581333-1.514667 5.376-1.493334 8.192 0.042667 7.744 0.981333 15.488 0.042667 23.253333-0.277333 2.304 0.448 4.053333 3.050667 4.48 0.768 0.128 1.493333 0.554667 1.877333 1.237333 1.301333 2.389333 3.541333 3.626667 5.76 4.906667 1.557333 0.874667 3.2 1.578667 4.714667 2.517333 3.605333 2.218667 7.146667 4.522667 10.730666 6.784 5.290667 3.370667 11.392 5.333333 16.170667 9.578667 0.554667 0.490667 1.344 0.704 2.048 1.024 4.8 2.154667 9.258667 4.970667 13.888 7.445333 3.328 1.770667 7.381333 2.624 9.834667 5.952 0.170667 0.234667 0.597333 0.32 0.917333 0.426667 5.056 1.941333 9.429333 5.205333 14.293333 7.573333 6.528 3.2 12.778667 6.997333 19.690667 9.450667 0.554667 0.192 1.130667 0.512 1.493333 0.96 1.429333 1.728 3.136 2.730667 5.44 2.922667 1.024 0.085333 2.112 0.725333 2.986667 1.365333 4.736 3.562667 10.858667 4.458667 15.509333 8.128 0.298667 0.234667 0.789333 0.298667 1.216 0.362667 2.837333 0.362667 5.482667 1.045333 7.573334 3.242666 0.597333 0.618667 1.685333 0.768 2.517333 1.194667 3.2 1.706667 7.125333 1.664 10.069333 3.541333 3.2 2.048 6.314667 2.005333 9.749334 1.792 2.709333-0.149333 5.482667-1.088 8.106666-0.341333 2.773333 0.810667 5.546667 0.896 8.341334 1.002667 3.84 0.128 6.848-2.389333 7.189333-6.165334 0.170667-2.090667 1.045333-3.712 2.176-5.333333 1.578667-2.304 3.946667-4.394667 4.117333-7.253333 0.341333-5.141333 4.416-9.088 4.224-14.336-0.021333-0.832 0.618667-1.6 1.28-2.154667 2.005333-1.728 2.688-4.074667 3.2-6.528 0.149333-0.746667 0.341333-1.493333 0.618667-2.197333 1.770667-4.650667 5.184-8.618667 5.589333-13.845334 0.064-0.768 0.661333-1.621333 1.258667-2.154666 1.898667-1.685333 2.410667-3.861333 2.453333-6.229334 0.021333-1.344 0.32-2.453333 1.216-3.52 3.690667-4.352 3.946667-9.856 0.597334-14.613333-1.024-1.472-1.472-2.944-1.450667-4.757333 0-4.778667 0.704-10.112-1.834667-14.016-2.474667-3.84-2.56-7.786667-3.434666-11.776-0.362667-1.664 0-3.541333-0.64-5.056-2.410667-5.653333-3.050667-11.541333-3.754667-17.578667-0.746667-6.272-6.656-8.448-12.224-5.333333-2.602667 1.450667-5.013333 3.157333-7.573333 4.650666-3.370667 1.962667-6.208 4.629333-9.408 6.805334-0.576 0.384-0.938667 1.237333-1.173334 1.941333-0.789333 2.517333-2.688 4.522667-4.885333 4.864-4.48 0.682667-7.872 3.114667-11.626667 5.226667-4.266667 2.389333-7.722667 6.186667-12.736 7.253333-0.064 0.021333-0.128 0.106667-0.192 0.170667-2.282667 2.346667-5.312 3.648-7.957333 5.482666-1.493333 1.045333-2.453333 2.986667-4.074667 3.349334-3.605333 0.768-6.186667 3.392-8.874666 5.248-4.416 3.050667-9.664 4.736-13.589334 8.490666-0.682667 0.661333-1.664 0.896-2.645333 0.725334-1.642667-0.277333-3.349333-0.064-4.608 0.042666z" p-id="6241" fill="#ff130e"></path></svg>